<?xml version="1.0" encoding="UTF-8"?>
<svg id="Layer_2" data-name="Layer 2" xmlns="http://www.w3.org/2000/svg" viewBox="0 0 416.46 425.6">
  <defs>
    <style>
      .cls-1 {
        stroke-linecap: round;
        stroke-linejoin: round;
      }

      .cls-1, .cls-2 {
        fill: none;
        stroke: #3283c1;
        stroke-width: 19px;
      }

      .cls-2 {
        stroke-miterlimit: 10;
      }
    </style>
  </defs>
  <g id="Color">
    <g>
      <g>
        <line class="cls-2" x1="268.69" y1="175.48" x2="190.42" y2="134.38"/>
        <line class="cls-2" x1="287.14" y1="236.7" x2="248.24" y2="287.32"/>
        <path class="cls-2" d="m194.31,115.13c0,6.83-1.39,13.34-3.89,19.26-7.51,17.67-25.02,30.06-45.42,30.06-27.24,0-49.32-22.08-49.32-49.32s22.08-49.32,49.32-49.32,49.31,22.08,49.31,49.32Z"/>
        <path class="cls-2" d="m264.56,323.97c0,27.24-22.08,49.32-49.31,49.32s-49.32-22.08-49.32-49.32,22.08-49.32,49.32-49.32c12.68,0,24.25,4.79,32.99,12.67,10.02,9.02,16.32,22.1,16.32,36.65Z"/>
        <path class="cls-2" d="m363.2,195.25c0,27.24-22.08,49.32-49.32,49.32-9.85,0-19.03-2.89-26.74-7.87-13.59-8.78-22.58-24.06-22.58-41.45,0-7.03,1.47-13.72,4.13-19.77,7.61-17.4,24.98-29.55,45.19-29.55,27.24,0,49.32,22.08,49.32,49.32Z"/>
      </g>
      <path class="cls-1" d="m9.5,152.35C35.24,69.59,112.43,9.5,203.66,9.5c112.28,0,203.3,91.02,203.3,203.3s-91.02,203.3-203.3,203.3c-51.51,0-98.54-19.16-134.37-50.73"/>
    </g>
  </g>
</svg>