<svg width="92" height="68" viewBox="0 0 92 68" fill="none" xmlns="http://www.w3.org/2000/svg">
<g id="Email">
<path id="Email_2" d="M8.625 0C3.86328 0 0 3.80729 0 8.5C0 11.174 1.27578 13.6885 3.45 15.3L42.55 44.2C44.5984 45.7052 47.4016 45.7052 49.45 44.2L88.55 15.3C90.7242 13.6885 92 11.174 92 8.5C92 3.80729 88.1367 0 83.375 0H8.625ZM0 19.8333V56.6667C0 62.9177 5.15703 68 11.5 68H80.5C86.843 68 92 62.9177 92 56.6667V19.8333L52.9 48.7333C48.8031 51.7615 43.1969 51.7615 39.1 48.7333L0 19.8333Z" fill="#15244D"/>
</g>
</svg>
