<svg width="70" height="70" viewBox="0 0 70 70" fill="none" xmlns="http://www.w3.org/2000/svg">
<g id="Telefono">
<path id="Telefono_2" d="M22.5439 3.36622C21.4912 0.823359 18.716 -0.530097 16.0637 0.19448L4.03303 3.47559C1.65422 4.13181 0 6.29187 0 8.7527C0 42.5754 27.4246 70 61.2473 70C63.7081 70 65.8682 68.3458 66.5244 65.967L69.8055 53.9363C70.5301 51.284 69.1766 48.5088 66.6338 47.4561L53.5094 41.9876C51.2809 41.0579 48.6971 41.7005 47.1796 43.5734L41.6564 50.3134C32.0318 45.7608 24.2392 37.9682 19.6866 28.3436L26.4266 22.8341C28.2995 21.3029 28.9421 18.7327 28.0124 16.5043L22.5439 3.37989V3.36622Z" fill="#15244D"/>
</g>
</svg>
