<svg width="90" height="80" viewBox="0 0 90 80" fill="none" xmlns="http://www.w3.org/2000/svg">
<g id="Ubicaci&#195;&#179;n">
<path id="Ubicaci&#195;&#179;n_2" d="M42.6875 49.4808C37.6719 43.1212 26.25 27.6902 26.25 19.0311C26.25 8.5164 34.6406 0 45 0C55.3594 0 63.75 8.5164 63.75 19.0311C63.75 27.6902 52.3281 43.1212 47.3125 49.4808C46.1094 51.0033 43.875 51.0033 42.6875 49.4808ZM25 79.7719L2.35938 70.5735C0.937492 70.0026 0 68.5911 0 67.0369V24.106C0 21.41 2.67188 19.5703 5.14062 20.5694L23.2656 27.9281C23.3438 28.1184 23.4219 28.3246 23.5 28.5149C23.9531 29.5933 24.4531 30.6876 25 31.7819V79.7719ZM87.6406 29.7043C89.0625 30.2911 90 31.6867 90 33.2409V76.1877C90 78.8838 87.3281 80.7234 84.8594 79.7243L65 71.652V31.7819C65.5469 30.6876 66.0469 29.5933 66.5 28.5149C67.375 26.4215 68.125 24.1695 68.5 21.9333L87.6562 29.7043H87.6406ZM30 40.441C33.2031 45.405 36.6094 49.8931 38.7812 52.6526C41.9844 56.7126 48.0156 56.7126 51.2188 52.6526C53.3906 49.8931 56.7969 45.405 60 40.441V71.2714L30 79.9781V40.441Z" fill="#15244D"/>
</g>
</svg>
